Coordinates
version=1
nRows=6
nColumns=63
inDegrees=yes

Units are S.I. units (second, meters, Newtons, ...)
If the header above contains a line with 'inDegrees', this indicates whether rotational values are in degrees (yes) or radians (no).

endheader
time	pelvis_tilt	pelvis_list	pelvis_rotation	pelvis_tx	pelvis_ty	pelvis_tz	hip_flexion_r	hip_adduction_r	hip_rotation_r	knee_angle_r	knee_angle_r_beta	ankle_angle_r	subtalar_angle_r	mtp_angle_r	hip_flexion_l	hip_adduction_l	hip_rotation_l	knee_angle_l	knee_angle_l_beta	ankle_angle_l	subtalar_angle_l	mtp_angle_l	L5_S1_Flex_Ext	L5_S1_Lat_Bending	L5_S1_axial_rotation	L4_L5_Flex_Ext	L4_L5_Lat_Bending	L4_L5_axial_rotation	L3_L4_Flex_Ext	L3_L4_Lat_Bending	L3_L4_axial_rotation	L2_L3_Flex_Ext	L2_L3_Lat_Bending	L2_L3_axial_rotation	L1_L2_Flex_Ext	L1_L2_Lat_Bending	L1_L2_axial_rotation	L1_T12_Flex_Ext	L1_T12_Lat_Bending	L1_T12_axial_rotation	Abs_r3	Abs_r2	Abs_r1	Abs_t1	Abs_t2	neck_flexion	neck_bending	neck_rotation	arm_flex_r	arm_add_r	arm_rot_r	elbow_flex_r	pro_sup_r	wrist_flex_r	wrist_dev_r	arm_flex_l	arm_add_l	arm_rot_l	elbow_flex_l	pro_sup_l	wrist_flex_l	wrist_dev_l
      0.00000000	     -3.77960115	     -4.95792079	     93.48103138	      0.20707392	      0.55995969	      0.95460390	      0.20493223	     -2.75500434	     -5.63596388	      7.78156739	      0.13581397	     33.67598023	     11.29161689	      0.00000000	      3.64750965	      2.90637505	      7.13827558	      9.92910948	      0.17329565	     26.15883979	    -15.71294044	      0.00000000	     -0.17996969	     -0.24092620	      0.54192727	     -0.33422170	     -0.32043185	      0.57579773	     -0.29567220	     -0.58578796	      0.57579773	     -0.20568735	     -0.58578796	      0.47418637	     -0.16711985	     -0.49129671	      0.44031591	     -0.10283468	     -0.37319468	      0.40644546	     -1.28550547	     -2.72540535	      3.01403692	      0.00000000	      0.00000000	     27.61187134	     -1.52508186	     -1.62433124	     -3.86600129	    -18.40843837	     26.66712738	     32.64181029	     69.76649671	    -11.17621184	     -4.83906495	      8.77269214	    -13.85616508	    130.74532246	     11.29432543	      4.92143377	     -5.76727025	    -13.56508064
      0.01666667	     -4.00817745	     -4.97017047	     93.83046467	      0.20753297	      0.55946458	      0.95426231	      0.07315430	     -2.84014461	     -5.50826774	      7.26876530	      0.12686389	     34.88464081	     11.19070678	      0.00000000	      4.14169137	      3.17253629	      7.01369949	     10.95656914	      0.19122821	     26.56137616	    -15.90694830	      0.00000000	     -0.17540791	     -0.30019053	      0.46117035	     -0.32575002	     -0.39925340	      0.48999349	     -0.28817765	     -0.72988324	      0.48999349	     -0.20047369	     -0.72988324	      0.40352405	     -0.16288378	     -0.61214852	      0.37470091	     -0.10022808	     -0.46499512	      0.34587776	     -1.25292113	     -3.39581526	      2.56489112	      0.00000000	      0.00000000	     27.67195686	     -0.93072333	     -2.07542616	     -3.96690045	    -18.02004408	     27.03380319	     32.06096042	     69.69247081	    -11.08701035	     -4.23124320	      8.50256866	    -14.66962440	    130.16582524	     11.33529353	      4.34256973	     -4.37465365	    -11.30703254
      0.03333333	     -3.93549410	     -4.89679164	     93.88877102	      0.20799376	      0.55926203	      0.95388146	      0.02862053	     -2.65355722	     -5.41183443	      7.07656335	      0.12350933	     35.73119391	     11.18034262	      0.00000000	      4.14207732	      3.09142932	      6.91877848	     11.15856206	      0.19475365	     26.79769100	    -16.05336187	      0.00000000	     -0.18133772	     -0.30802811	      0.43838122	     -0.33676228	     -0.40967739	      0.46578004	     -0.29791974	     -0.74893955	      0.46578004	     -0.20725088	     -0.74893955	      0.38358356	     -0.16839021	     -0.62813093	      0.35618474	     -0.10361637	     -0.47713555	      0.32878591	     -1.29527719	     -3.48447562	      2.43814481	      0.00000000	      0.00000000	     27.70203712	     -0.83851333	     -2.03756329	     -4.15204658	    -17.93910341	     27.13806687	     31.89999423	     69.69341458	    -11.08154888	     -4.10774953	      8.36223346	    -15.20649345	    130.15151030	     11.14561217	      4.31176921	     -4.33651627	    -11.02142321
      0.05000000	     -3.94427696	     -4.92724075	     94.25639161	      0.20723941	      0.55935740	      0.95440135	     -0.04955253	     -2.61844399	     -5.47872936	      6.67538498	      0.11650745	     36.11445480	     11.16358370	      0.00000000	      4.81353297	      3.19297577	      6.85554252	     12.34405624	      0.21544442	     27.32946540	    -15.96725992	      0.00000000	     -0.18003340	     -0.31447571	      0.25110092	     -0.33434002	     -0.41825269	      0.26679473	     -0.29577687	     -0.76461624	      0.26679473	     -0.20576017	     -0.76461624	      0.21971331	     -0.16717901	     -0.64127887	      0.20401950	     -0.10287108	     -0.48712287	      0.18832569	     -1.28596055	     -3.55741212	      1.39654800	      0.00000000	      0.00000000	     27.65749743	      0.67337800	     -0.72345811	     -3.56132760	    -18.01835715	     28.20128025	     31.56308596	     70.05333702	    -11.05817307	     -3.24485737	      8.07988143	    -15.31863041	    130.78496892	      9.98147898	      4.65720675	     -4.27181293	     -9.69662491
      0.06666667	     -3.79231605	     -4.88618031	     94.35185650	      0.20675118	      0.55960782	      0.95463164	     -0.04964114	     -2.47030071	     -6.01782727	      6.58552259	      0.11493905	     36.41371966	     11.86204807	      0.00000000	      5.03344256	      3.07227363	      6.68371970	     12.80713576	      0.22352669	     27.76792301	    -15.69833396	      0.00000000	     -0.18840020	     -0.29281417	      0.14299851	     -0.34987801	     -0.38944285	      0.15193592	     -0.30952269	     -0.71194837	      0.15193592	     -0.21532259	     -0.71194837	      0.12512370	     -0.17494843	     -0.59710666	      0.11618629	     -0.10765188	     -0.45356915	      0.10724888	     -1.34572380	     -3.31237246	      0.79531483	      0.00000000	      0.00000000	     27.61944626	      1.64262212	      0.79093794	     -3.10431524	    -18.32938263	     29.38269407	     31.53280515	     70.10242539	    -11.39196918	     -3.06018051	      7.85657684	    -14.81463297	    139.07263748	      7.35179655	      3.24348162	     -5.36259099	    -10.01966419
      0.08333333	     -3.67017162	     -4.89342947	     94.24699967	      0.20639922	      0.55985337	      0.95498748	      0.02632741	     -2.35720366	     -6.16616577	      6.53840033	      0.11411661	     36.51944625	     12.21063175	      0.00000000	      5.25234284	      2.99358847	      6.50051503	     13.15728416	      0.22963793	     28.05424958	    -15.69249277	      0.00000000	     -0.19226926	     -0.27125648	      0.06212656	     -0.35706324	     -0.36077112	      0.06600947	     -0.31587916	     -0.65953300	      0.06600947	     -0.21974453	     -0.65953300	      0.05436074	     -0.17854123	     -0.55314621	      0.05047783	     -0.10986265	     -0.42017628	      0.04659492	     -1.37336007	     -3.06850752	      0.34552927	      0.00000000	      0.00000000	     27.57143802	      2.67904442	      2.47253255	     -2.63716933	    -18.66072490	     30.10544632	     31.71104150	     71.11262105	    -11.58040126	     -2.73951344	      7.70162964	    -14.74582571	    142.55328127	      5.80985170	      4.42000111	     -7.75333256	    -10.30148401
